<svg xmlns="http://www.w3.org/2000/svg" xmlns:xlink="http://www.w3.org/1999/xlink" width="150" height="150" viewBox="0 0 150 150">
    <defs>
        <linearGradient id="a" x1="-59.827" y1="61.415" x2="-59.736" y2="61.415" gradientUnits="objectBoundingBox">
            <stop offset="0" stop-color="#ffd369"/>
            <stop offset="1" stop-color="#ffd369"/>
        </linearGradient>
        <linearGradient id="b" x1="-70.968" y1="58.607" x2="-70.878" y2="58.607" xlink:href="#a"/>
        <linearGradient id="c" x1="-4.979" y1="5.082" x2="-4.972" y2="5.082" xlink:href="#a"/>
        <linearGradient id="d" x1="-3.291" y1="4.765" x2="-3.286" y2="4.765" xlink:href="#a"/>
        <linearGradient id="e" x1="-7.515" y1="5.373" x2="-7.505" y2="5.373" xlink:href="#a"/>
        <linearGradient id="f" x1="-7.509" y1="5.543" x2="-7.499" y2="5.543" gradientUnits="objectBoundingBox">
            <stop offset="0" stop-color="#222831"/>
            <stop offset="1" stop-color="#222831"/>
        </linearGradient>
    </defs>
    <g transform="translate(-119.031 -13.261)">
        <g transform="matrix(0.978, -0.208, 0.208, 0.978, 102.09, 24.45)" opacity="0.99">
            <rect width="22.967" height="22.967" transform="translate(0.002 133.632) rotate(-76)" fill="none"/>
            <circle cx="3.278" cy="3.278" r="3.278" transform="translate(10.65 121.986)" fill="url(#a)"/>
            <rect width="22.967" height="22.967" transform="translate(73.052 152.045) rotate(-76)" fill="none"/>
            <circle cx="3.278" cy="3.278" r="3.278" transform="translate(83.703 140.397)" fill="url(#b)"/>
            <rect width="111.551" height="98.425" transform="translate(15.633 124.12) rotate(-76)" fill="none"/>
            <path d="M128.841,125.157a3.281,3.281,0,1,0,4.983,4.27,33.979,33.979,0,0,0,7.234-14.011l1.586-6.367A41.011,41.011,0,1,0,63.057,89.207l-1.586,6.367a47.556,47.556,0,0,0,43.4,58.995,3.278,3.278,0,0,0,.38-6.533A40.981,40.981,0,0,1,67.833,97.177l1.586-6.367a34.449,34.449,0,0,1,66.852,16.666l-1.586,6.367A27.517,27.517,0,0,1,128.841,125.157Z"
                  transform="translate(-24.386 -23.596)" fill="url(#c)"/>
            <rect width="127.955" height="124.677" transform="translate(2.102 124.154) rotate(-76)" fill="none"/>
            <path d="M23.957,133.617a3.279,3.279,0,0,0,3.973-2.376l13.1-52.527a47.573,47.573,0,1,1,92.32,23.021L131.76,108.1a40.85,40.85,0,0,1-22.444,27.231,3.284,3.284,0,1,0,2.78,5.939,47.389,47.389,0,0,0,26.032-31.6l1.586-6.367A54.135,54.135,0,1,0,34.658,77.111L21.593,129.638A3.29,3.29,0,0,0,23.957,133.617Z"
                  transform="translate(-8.728 -14.643)" fill="url(#d)"/>
            <rect width="101.71" height="72.18" transform="translate(27.776 130.837) rotate(-76)" fill="none"/>
            <path d="M139.209,116.259a27.914,27.914,0,0,0-54.118-13.494L83.5,109.132a34.412,34.412,0,0,0,34.186,42.763,3.284,3.284,0,1,0-.154-6.563,27.445,27.445,0,0,1-7.353-.808,27.914,27.914,0,0,1-20.312-33.8l1.586-6.367a21.327,21.327,0,1,1,41.387,10.317L119.776,167.2a3.281,3.281,0,1,0,6.367,1.586Z"
                  transform="translate(-33.49 -33.614)" fill="url(#e)"/>
            <rect width="118.322" height="65.985" transform="translate(35.577 118.247) rotate(-79)" fill="none"/>
            <g transform="translate(-36.086 -16.13)" fill="url(#f)">
                <path d="M 111.3663940429688 131.1136779785156 C 111.3657379150391 131.1136779785156 111.3652801513672 131.1136779785156 111.3646240234375 131.1136779785156 C 109.8623504638672 131.1135711669922 108.34716796875 130.9670257568359 106.8611755371094 130.6781158447266 C 103.7516250610352 130.0735168457031 100.85302734375 128.8777160644531 98.24588012695313 127.1238479614258 C 95.72812652587891 125.4301376342773 93.58748626708984 123.2902374267578 91.88339996337891 120.7635879516602 C 90.17932891845703 118.236946105957 88.99739074707031 115.4504470825195 88.37042999267578 112.4814987182617 C 87.72119903564453 109.4071350097656 87.69856262207031 106.2716369628906 88.30312347412109 103.1620864868164 L 93.74942779541016 75.15257263183594 C 94.019287109375 73.74565124511719 94.55667877197266 72.42333221435547 95.34615325927734 71.22487640380859 C 96.13564300537109 70.02642059326172 97.138427734375 69.01069641113281 98.32666778564453 68.20590972900391 C 100.1321258544922 66.98310089111328 102.2390365600586 66.33674621582031 104.4196166992188 66.33674621582031 C 105.1087112426758 66.33674621582031 105.8013534545898 66.40298461914063 106.4783172607422 66.53362274169922 L 114.5285034179688 68.12247467041016 L 115.7963638305664 61.68013763427734 C 116.795036315918 56.6120491027832 121.2643127441406 52.93377304077148 126.4233245849609 52.93377304077148 C 126.8464584350586 52.93377304077148 127.2748107910156 52.95893859863281 127.6976470947266 53.00859832763672 C 127.7092056274414 53.00849914550781 127.7207717895508 53.00844955444336 127.7323379516602 53.00844955444336 C 128.0005645751953 53.00844955444336 128.2698211669922 53.03545761108398 128.5326843261719 53.08872604370117 L 134.5742340087891 54.27568435668945 C 134.7043304443359 54.3011474609375 134.8372955322266 54.31412506103516 134.9687652587891 54.31410980224609 C 135.9309997558594 54.31407165527344 136.7696228027344 53.62923431396484 136.9644012451172 52.68511581420898 L 139.0421447753906 41.99969863891602 L 139.0505828857422 41.95638656616211 L 139.0627746582031 41.91398620605469 C 139.6041107177734 40.03318405151367 141.3477325439453 38.71961212158203 143.3029632568359 38.71961212158203 C 143.5908355712891 38.71961212158203 143.8807830810547 38.74817276000977 144.1647644042969 38.80452346801758 C 145.2530822753906 39.02043533325195 146.2132873535156 39.63246154785156 146.8685455322266 40.52783584594727 C 147.5237884521484 41.42323684692383 147.8166961669922 42.52359771728516 147.6932830810547 43.62623596191406 L 147.6887969970703 43.66630935668945 L 147.6810913085938 43.70588684082031 L 145.6023559570313 54.39653778076172 C 144.6072082519531 59.48964691162109 140.1246337890625 63.18561172485352 134.9436645507813 63.18561172485352 C 134.2510681152344 63.18561172485352 133.5523681640625 63.11833572387695 132.8669891357422 62.98567199707031 L 126.8180618286133 61.79728698730469 C 126.6907806396484 61.77263641357422 126.5587158203125 61.75987243652344 126.4281158447266 61.75987243652344 C 125.4653396606445 61.75987243652344 124.6248474121094 62.44463729858398 124.4277114868164 63.38887023925781 L 123.1821899414063 69.78629302978516 L 131.2313079833984 71.37493896484375 C 134.0757598876953 71.93070983886719 136.5363006591797 73.56119537353516 138.1578216552734 75.96568298339844 C 139.7793426513672 78.37016296386719 140.3688354492188 81.262451171875 139.8177185058594 84.10974884033203 L 134.377197265625 112.119873046875 C 133.8442077636719 114.8612518310547 132.8458862304688 117.4510498046875 131.4099426269531 119.8175201416016 C 130.0225219726563 122.1039962768555 128.2635955810547 124.1240997314453 126.1820373535156 125.8217010498047 C 121.9976043701172 129.2342681884766 116.7359161376953 131.1136779785156 111.3663940429688 131.1136779785156 Z M 102.3989181518555 76.841796875 L 96.93534851074219 104.8803863525391 C 96.18917846679688 108.719612121582 96.98284149169922 112.6201019287109 99.17024230957031 115.8628616333008 C 101.3576431274414 119.1056213378906 104.6769180297852 121.3024749755859 108.5166168212891 122.0487213134766 C 109.4449310302734 122.2291488647461 110.3906631469727 122.3206329345703 111.3275527954102 122.3206329345703 C 118.3124389648438 122.3206329345703 124.3505020141602 117.3356704711914 125.6847305297852 110.4675140380859 L 131.1310729980469 82.45784759521484 C 131.3427581787109 81.36521911621094 130.6290283203125 80.29270172119141 129.5393829345703 80.06547546386719 L 104.7911758422852 75.25002288818359 C 104.6621246337891 75.22502136230469 104.5300674438477 75.21227264404297 104.3994674682617 75.21227264404297 C 103.4365005493164 75.21227264404297 102.5958633422852 75.89730072021484 102.3989181518555 76.841796875 Z M 113.9526824951172 98.56021118164063 C 113.9525527954102 98.56021118164063 113.9524459838867 98.56021118164063 113.9523162841797 98.56021118164063 C 113.6698913574219 98.56018829345703 113.38525390625 98.53268432617188 113.106330871582 98.47846221923828 C 111.9656372070313 98.25936126708984 110.9373016357422 97.57988739013672 110.2871398925781 96.61468505859375 C 109.6369934082031 95.64947509765625 109.3937377929688 94.441162109375 109.6197662353516 93.29957580566406 L 111.4009399414063 84.15613555908203 L 111.4047393798828 84.13662719726563 L 111.4093170166016 84.11727142333984 C 111.6389770507813 83.14589691162109 112.1976776123047 82.2724609375 112.9825134277344 81.65785980224609 C 113.7569808959961 81.05139923095703 114.7230377197266 80.71739959716797 115.702766418457 80.71739959716797 C 115.9847259521484 80.71739959716797 116.2689056396484 80.74481964111328 116.5474243164063 80.79888916015625 C 118.8815612792969 81.25205993652344 120.4291000366211 83.44831085205078 120.0705184936523 85.79885101318359 L 120.0674285888672 85.81906127929688 L 120.0635299682617 85.83912658691406 L 118.2817611694336 94.99150848388672 C 117.8769607543945 97.05980682373047 116.0564346313477 98.56021118164063 113.9526824951172 98.56021118164063 Z"
                      stroke="none"/>
                <path d="M 143.3029327392578 39.7196044921875 C 141.8089752197266 39.7196044921875 140.4515075683594 40.70440673828125 140.0237579345703 42.19056701660156 L 137.9450073242188 52.88121795654297 C 137.6511077880859 54.32025909423828 136.3847045898438 55.31410217285156 134.9688110351563 55.31410217285156 C 134.7750854492188 55.31410217285156 134.5786743164063 55.29551696777344 134.3814392089844 55.25691223144531 L 128.3353271484375 54.06905364990234 C 128.1367950439453 54.02873992919922 127.9347457885742 54.00845336914063 127.7323303222656 54.00845336914063 C 127.7036666870117 54.00845336914063 127.6750335693359 54.00885772705078 127.646369934082 54.00966644287109 C 127.235969543457 53.95868682861328 126.8271484375 53.93377685546875 126.4233474731445 53.93377685546875 C 121.7845230102539 53.93377685546875 117.696044921875 57.21202087402344 116.7775268554688 61.87322998046875 L 115.3164749145508 69.29728698730469 L 106.2888259887695 67.51551055908203 C 105.6683807373047 67.39577484130859 105.0425109863281 67.33674621582031 104.4196319580078 67.33674621582031 C 102.4615020751953 67.33674621582031 100.5321197509766 67.91996002197266 98.88743591308594 69.03388214111328 C 96.71954345703125 70.50216674804688 95.22427368164063 72.77201843261719 94.73104858398438 75.34346008300781 L 89.28475952148438 103.3529357910156 C 86.91650390625 115.5337905883789 94.87115478515625 127.3282012939453 107.0520248413086 129.6964874267578 C 108.4995422363281 129.9779205322266 109.9432601928711 130.1136779785156 111.3646926879883 130.1136779785156 C 121.9046020507813 130.1136779785156 131.3087005615234 122.6625289916992 133.3955535888672 111.92919921875 L 138.8359375 83.91970825195313 C 139.8706207275391 78.5740966796875 136.3814697265625 73.40013885498047 131.0376739501953 72.35601806640625 L 122.0099945068359 70.57422637939453 L 123.4473190307617 63.19173431396484 C 123.7440872192383 61.75291442871094 125.0112838745117 60.75988006591797 126.428092956543 60.75988006591797 C 126.6202774047852 60.75988006591797 126.8151931762695 60.77815246582031 127.0108337402344 60.81605529785156 L 133.0570220947266 62.00389862060547 C 133.6903076171875 62.12648010253906 134.3217620849609 62.18560791015625 134.9436645507813 62.18560791015625 C 139.5711669921875 62.18560791015625 143.7002868652344 58.9163818359375 144.6207427978516 54.20565795898438 L 146.6994781494141 43.5150146484375 C 146.8968505859375 41.75152587890625 145.710693359375 40.13072204589844 143.9701538085938 39.785400390625 C 143.7465362548828 39.74102783203125 143.5231628417969 39.7196044921875 143.3029327392578 39.7196044921875 M 111.3275451660156 123.3206176757813 C 110.3373489379883 123.3206176757813 109.3342132568359 123.2263336181641 108.3258209228516 123.0303497314453 C 99.8446044921875 121.3820190429688 94.30545043945313 113.1703491210938 95.95382690429688 104.6891250610352 L 101.4186401367188 76.64413452148438 C 101.7154235839844 75.20531463623047 102.9826507568359 74.21227264404297 104.3994598388672 74.21227264404297 C 104.5916442871094 74.21227264404297 104.7865447998047 74.23053741455078 104.982177734375 74.26844024658203 L 129.7369842529297 79.08517456054688 C 131.3709716796875 79.42220306396484 132.4300079345703 81.01076507568359 132.1127014160156 82.64871978759766 L 126.666374206543 110.658203125 C 125.2146530151367 118.1311721801758 118.6655120849609 123.3206176757813 111.3275451660156 123.3206176757813 M 115.702766418457 81.71739196777344 C 114.1497344970703 81.71725463867188 112.752685546875 82.78151702880859 112.3824920654297 84.34735107421875 L 110.600715637207 93.49380493164063 C 110.4247741699219 94.38245391845703 110.6104202270508 95.30462646484375 111.1165313720703 96.05599975585938 C 111.6226654052734 96.807373046875 112.4074478149414 97.32595062255859 113.297119140625 97.496826171875 C 113.5170440673828 97.53957366943359 113.736442565918 97.56020355224609 113.9524154663086 97.56020355224609 C 115.5529327392578 97.56020355224609 116.9812927246094 96.4298095703125 117.3001937866211 94.8004150390625 L 119.0819473266602 85.64804077148438 C 119.3583068847656 83.8365478515625 118.1557006835938 82.12981414794922 116.3568267822266 81.78054809570313 C 116.1374588012695 81.73796081542969 115.9184646606445 81.7174072265625 115.702766418457 81.71739196777344 M 143.3029327392578 37.7196044921875 C 143.6560211181641 37.7196044921875 144.011474609375 37.75460815429688 144.3594207763672 37.82365417480469 C 145.6941680908203 38.08845520019531 146.8718872070313 38.83909606933594 147.6755065917969 39.93727111816406 C 148.4791870117188 41.03547668457031 148.8384246826172 42.38507080078125 148.6870727539063 43.73747253417969 L 148.6781005859375 43.81760406494141 L 148.6627044677734 43.89675140380859 L 146.5839691162109 54.58738708496094 C 145.4971160888672 60.14973449707031 140.601806640625 64.18560028076172 134.9436492919922 64.18560028076172 C 134.1874084472656 64.18560028076172 133.4247741699219 64.11220550537109 132.6769409179688 63.96744537353516 L 132.6742095947266 63.96692657470703 L 132.6714782714844 63.96637725830078 L 126.629638671875 62.77938842773438 C 126.5625686645508 62.76644897460938 126.494758605957 62.75988006591797 126.428092956543 62.75988006591797 C 125.9383239746094 62.75988006591797 125.5103988647461 63.10778045654297 125.4076614379883 63.58827209472656 L 124.3543548583984 68.99835205078125 L 131.4249420166016 70.39386749267578 C 134.5293426513672 71.00042724609375 137.2162475585938 72.78090667724609 138.9869079589844 75.40657806396484 C 140.7575836181641 78.0322265625 141.4013061523438 81.19056701660156 140.7994995117188 84.29977416992188 L 135.3588562011719 112.3105316162109 C 134.80322265625 115.1684036254883 133.7622680664063 117.8684844970703 132.2648468017578 120.3361892700195 C 130.8181304931641 122.7203216552734 128.9842071533203 124.8265533447266 126.8140258789063 126.5963745117188 C 122.4512634277344 130.1542510986328 116.9645843505859 132.1136779785156 111.3646926879883 132.1136779785156 C 109.7990493774414 132.1136779785156 108.2196350097656 131.9609375 106.6703338623047 131.6597290039063 C 103.4286956787109 131.0294494628906 100.4065093994141 129.7825317382813 97.68771362304688 127.9535751342773 C 95.06257629394531 126.1876220703125 92.83079528808594 123.9566802978516 91.05433654785156 121.3227386474609 C 89.27790832519531 118.6887893676758 88.04570007324219 115.7836837768555 87.39201354980469 112.6881103515625 C 86.71498107910156 109.4821014404297 86.69126892089844 106.2128677368164 87.32151794433594 102.9712295532227 L 92.76686096191406 74.96671295166016 L 92.766845703125 74.96671295166016 C 93.06207275390625 73.42755126953125 93.64891052246094 71.98353576660156 94.51106262207031 70.67476654052734 C 95.37319946289063 69.36600494384766 96.46827697753906 68.25679016113281 97.76588439941406 67.37793731689453 C 99.73751831054688 66.04258728027344 102.0383453369141 65.33674621582031 104.4196166992188 65.33674621582031 C 105.1721649169922 65.33674621582031 105.9285583496094 65.40908050537109 106.6678009033203 65.55173492431641 L 106.6719436645508 65.55255126953125 L 106.6760940551758 65.55335998535156 L 113.7405242919922 66.94766235351563 L 114.8151702880859 61.48704528808594 C 115.3469848632813 58.78821563720703 116.8119049072266 56.34484100341797 118.9401550292969 54.60655975341797 C 121.0503997802734 52.88298797607422 123.7079696655273 51.93377685546875 126.4233474731445 51.93377685546875 C 126.8651657104492 51.93377685546875 127.312141418457 51.95890045166016 127.7540130615234 52.00850677490234 C 128.0803985595703 52.00992584228516 128.4078063964844 52.04334259033203 128.7276000976563 52.10789489746094 L 134.7670135498047 53.29443359375 C 134.8332824707031 53.30740356445313 134.9016265869141 53.31410980224609 134.9688262939453 53.31410980224609 C 135.45703125 53.31410980224609 135.8829040527344 52.96694946289063 135.9840698242188 52.48767852783203 L 138.0605316162109 41.80882263183594 L 138.0773620605469 41.72218322753906 L 138.1017761230469 41.63735961914063 C 138.4320068359375 40.49008178710938 139.1120300292969 39.50692749023438 140.0683288574219 38.79417419433594 C 140.9980621337891 38.10122680664063 142.1467895507813 37.7196044921875 143.3029327392578 37.7196044921875 Z M 129.3409729003906 81.04563903808594 L 104.6002044677734 76.23162841796875 C 104.534423828125 76.21887969970703 104.4663696289063 76.21227264404297 104.3994598388672 76.21227264404297 C 103.909912109375 76.21227264404297 103.4821319580078 76.55991363525391 103.3791046142578 77.04006195068359 L 97.91690063476563 105.0716400146484 C 97.22178649902344 108.648193359375 97.96125793457031 112.2823181152344 99.999267578125 115.3036422729492 C 102.0372924804688 118.3249664306641 105.1298980712891 120.3717880249023 108.7073822021484 121.0670776367188 C 109.5729675292969 121.2353210449219 110.4545135498047 121.3206176757813 111.3275451660156 121.3206176757813 C 117.834716796875 121.3206176757813 123.4599456787109 116.676025390625 124.7030792236328 110.2768020629883 L 130.1494750976563 82.26697540283203 C 130.2571716308594 81.71107482910156 129.8950347900391 81.16439056396484 129.3409729003906 81.04563903808594 Z M 115.7024230957031 79.71739196777344 L 115.7024765014648 79.71739196777344 L 115.7026138305664 79.71739196777344 L 115.7029418945313 79.71739196777344 C 116.0488204956055 79.71743011474609 116.3970336914063 79.75101470947266 116.7379837036133 79.81719970703125 C 118.117546081543 80.08506011962891 119.3230667114258 80.86521911621094 120.1325073242188 82.01397705078125 C 120.9419403076172 83.16273498535156 121.2710113525391 84.56045532226563 121.0590667724609 85.94966888427734 L 121.0529022216797 85.99008178710938 L 121.0450897216797 86.03022003173828 L 119.2633438110352 95.18258666992188 C 118.766731262207 97.71997833251953 116.533317565918 99.56020355224609 113.9524078369141 99.56020355224609 C 113.6061706542969 99.56020355224609 113.2573165893555 99.52651977539063 112.91552734375 99.46009826660156 C 111.5174942016602 99.19157409667969 110.2556076049805 98.3577880859375 109.4577713012695 97.17336273193359 C 108.6600875854492 95.98911285400391 108.3615493774414 94.50677490234375 108.6386337280273 93.10617065429688 L 110.4193954467773 83.96492004394531 L 110.4269943237305 83.92589569091797 L 110.4361419677734 83.88719177246094 C 110.7177810668945 82.69595336914063 111.4030914306641 81.62467193603516 112.3658142089844 80.87068176269531 C 113.3154067993164 80.12696075439453 114.5003967285156 79.71739196777344 115.7024765014648 79.71739196777344 L 115.7024230957031 79.71739196777344 Z"
                      stroke="none" fill="#fff"/>
            </g>
        </g>
    </g>
</svg>