<svg xmlns="http://www.w3.org/2000/svg" xmlns:xlink="http://www.w3.org/1999/xlink" viewBox="0 0 259.34 265.35"><defs><style>.a{fill:none;}.b{fill:url(#a);}.c{fill:url(#b);}.d{fill:url(#c);}.e{fill:url(#d);}.f{fill:url(#e);}.g{fill:url(#f);}</style><linearGradient id="a" x1="-642.56" y1="883.41" x2="-641.56" y2="883.41" gradientTransform="matrix(10.72, 2.67, 2.67, -10.72, 4545.17, 11397.21)" gradientUnits="userSpaceOnUse"><stop offset="0" stop-color="#ffd369"/><stop offset="1" stop-color="#ffd369"/></linearGradient><linearGradient id="b" x1="-642.56" y1="883.41" x2="-641.56" y2="883.41" gradientTransform="matrix(10.72, 2.67, 2.67, -10.72, 4668.17, 11428.21)" xlink:href="#a"/><linearGradient id="c" x1="-642.56" y1="883.41" x2="-641.56" y2="883.41" gradientTransform="matrix(134, 33.41, 38.76, -155.44, 51928.59, 158906.97)" xlink:href="#a"/><linearGradient id="d" x1="-642.56" y1="883.41" x2="-641.56" y2="883.41" gradientTransform="matrix(176.88, 44.1, 45.44, -182.24, 73559.26, 189438.86)" xlink:href="#a"/><linearGradient id="e" x1="-642.56" y1="883.41" x2="-641.56" y2="883.41" gradientTransform="matrix(91.12, 22.72, 34.75, -139.36, 27935.73, 137851.26)" xlink:href="#a"/><linearGradient id="f" x1="-642.56" y1="883.41" x2="-641.56" y2="883.41" gradientTransform="matrix(74.27, 14.44, 30.71, -158.01, 20691.04, 148966.23)" gradientUnits="userSpaceOnUse"><stop offset="0" stop-color="#222831"/><stop offset="1" stop-color="#222831"/></linearGradient></defs><rect class="a" x="4.1" y="191.58" width="38.67" height="38.67" transform="translate(-186.88 182.63) rotate(-76)"/><circle class="b" cx="23.45" cy="210.91" r="5.52"/><rect class="a" x="127.1" y="222.58" width="38.67" height="38.67" transform="translate(-123.72 325.48) rotate(-76)"/><circle class="c" cx="146.45" cy="241.91" r="5.52"/><rect class="a" x="35.53" y="55.05" width="187.82" height="165.72" transform="translate(-35.69 230.14) rotate(-76)"/><path class="d" d="M175.87,171a5.52,5.52,0,1,0,8.39,7.19,57.21,57.21,0,0,0,12.18-23.59l2.67-10.72a69.05,69.05,0,1,0-134-33.41l-2.67,10.72a80.07,80.07,0,0,0,73.07,99.33,5.52,5.52,0,0,0,.64-11,69,69,0,0,1-63-85.63l2.67-10.72a58,58,0,1,1,112.56,28.06l-2.67,10.72A46.33,46.33,0,0,1,175.87,171Z"/><rect class="a" x="23.72" y="24.95" width="215.44" height="209.92" transform="translate(-26.41 226.02) rotate(-76)"/><path class="e" d="M25.64,200.32a5.52,5.52,0,0,0,6.69-4l22.05-88.44a80.1,80.1,0,0,1,155.44,38.76l-2.67,10.72a68.78,68.78,0,0,1-37.79,45.85,5.53,5.53,0,1,0,4.68,10A79.79,79.79,0,0,0,217.87,160l2.67-10.72a91.15,91.15,0,1,0-176.88-44.1l-22,88.44A5.54,5.54,0,0,0,25.64,200.32Z"/><rect class="a" x="40.81" y="91.15" width="171.25" height="121.53" transform="translate(-51.55 237.84) rotate(-76)"/><path class="f" d="M178,139.15a47,47,0,0,0-91.12-22.72l-2.67,10.72a57.94,57.94,0,0,0,57.56,72,5.53,5.53,0,1,0-.26-11.05,46.21,46.21,0,0,1-12.38-1.36,47,47,0,0,1-34.2-56.91l2.67-10.72a35.91,35.91,0,1,1,69.68,17.37l-22,88.44A5.52,5.52,0,0,0,156,227.59Z"/><rect class="a" x="33.83" y="56.36" width="199.22" height="111.1" transform="translate(-1.88 221.55) rotate(-79)"/><path class="g" d="M153.09,75.24l10.18,2a16.62,16.62,0,0,0,19.47-13.13l3.5-18A5.75,5.75,0,0,0,175,43.88l-3.5,18a5.12,5.12,0,0,1-6,4l-10.18-2a5.1,5.1,0,0,0-1.16-.1,16.57,16.57,0,0,0-18.3,13.24L133.4,89.52l-15.2-3A16.61,16.61,0,0,0,98.74,99.7l-9.17,47.16a37.83,37.83,0,1,0,74.27,14.44L173,114.14a16.62,16.62,0,0,0-13.13-19.47l-15.2-3,2.42-12.43A5.13,5.13,0,0,1,153.09,75.24ZM157.68,106a5.13,5.13,0,0,1,4,6l-9.17,47.16a26.34,26.34,0,0,1-51.71-10.05L110,101.89a5.13,5.13,0,0,1,6-4ZM130,137a5.75,5.75,0,0,0,6.74-4.54l3-15.41a5.75,5.75,0,0,0-11.28-2.19l-3,15.4A5.73,5.73,0,0,0,130,137Z"/></svg>