<svg xmlns="http://www.w3.org/2000/svg" width="411.484" height="217.409" viewBox="0 0 411.484 217.409"><g transform="translate(-130.042 -22.487)"><text transform="translate(161.876 214.681)" fill="#afafaf" font-size="34" font-family="NothingYouCouldDo, Nothing You Could Do"><tspan x="0" y="0">Fake</tspan></text><text transform="translate(263.526 218.897)" fill="#fff" font-size="53" font-family="Kufam"><tspan x="0" y="0">Commerce</tspan></text><g transform="matrix(0.978, -0.208, 0.208, 0.978, 108.222, 36.899)" opacity="0.99"><rect width="29.585" height="29.585" transform="translate(0 172.137) rotate(-76)" fill="none"/><circle cx="4.223" cy="4.223" r="4.223" transform="translate(13.716 157.135)" fill="#cbcbcb"/><rect width="29.585" height="29.585" transform="translate(94.098 195.855) rotate(-76)" fill="none"/><circle cx="4.223" cy="4.223" r="4.223" transform="translate(107.817 180.852)" fill="#cbcbcb"/><rect width="143.692" height="126.785" transform="translate(20.135 159.884) rotate(-76)" fill="none"/><path d="M88.6,86.369a4.227,4.227,0,1,0,6.419,5.5,43.769,43.769,0,0,0,9.318-18.048l2.043-8.2A52.828,52.828,0,1,0,3.867,40.06l-2.043,8.2a61.258,61.258,0,0,0,55.9,75.993,4.223,4.223,0,0,0,.49-8.416,52.789,52.789,0,0,1-48.2-65.511l2.043-8.2A44.375,44.375,0,0,1,98.175,63.593l-2.043,8.2A35.445,35.445,0,0,1,88.6,86.369Z" transform="translate(45.944 44.456)" fill="#cbcbcb"/><rect width="164.823" height="160.6" transform="translate(2.705 159.928) rotate(-76)" fill="none"/><path d="M3.171,125.669a4.223,4.223,0,0,0,5.118-3.06L25.159,54.947A61.281,61.281,0,1,1,144.079,84.6l-2.043,8.2a52.62,52.62,0,0,1-28.911,35.078,4.231,4.231,0,1,0,3.58,7.651,61.043,61.043,0,0,0,33.532-40.708l2.043-8.2A69.734,69.734,0,1,0,16.956,52.881L.127,120.543A4.238,4.238,0,0,0,3.171,125.669Z" transform="translate(16.443 27.587)" fill="#cbcbcb"/><rect width="131.015" height="92.977" transform="translate(35.777 168.537) rotate(-76)" fill="none"/><path d="M73.083,43.128A35.957,35.957,0,0,0,3.371,25.746l-2.043,8.2A44.327,44.327,0,0,0,45.365,89.031a4.231,4.231,0,1,0-.2-8.454,35.353,35.353,0,0,1-9.471-1.041A35.957,35.957,0,0,1,9.53,36l2.043-8.2a27.472,27.472,0,1,1,53.312,13.29L48.05,108.746a4.226,4.226,0,1,0,8.2,2.043Z" transform="translate(63.095 63.33)" fill="#cbcbcb"/><rect width="152.414" height="84.997" transform="translate(45.825 152.319) rotate(-79)" fill="none"/><g transform="translate(67.987 30.388)" fill="#ffd369"><path d="M 28.98132133483887 117.9393997192383 C 28.9804630279541 117.9393997192383 28.98000907897949 117.9393997192383 28.97914886474609 117.9393997192383 C 27.03048324584961 117.9392471313477 25.06513214111328 117.7491683959961 23.1376838684082 117.3744277954102 C 19.10420036315918 116.590217590332 15.3442325592041 115.0390167236328 11.96224975585938 112.7639007568359 C 8.69629955291748 110.5668640136719 5.91956615447998 107.7910995483398 3.709149599075317 104.5137176513672 C 1.498749613761902 101.236328125 -0.03440037742257118 97.62183380126953 -0.8476670384407043 93.77059936523438 C -1.689850330352783 89.78253173828125 -1.719233751296997 85.71526336669922 -0.9350337386131287 81.6817626953125 L 6.080516338348389 45.60186386108398 C 6.433316230773926 43.76258087158203 7.13599967956543 42.03349685668945 8.168349266052246 40.46634674072266 C 9.200699806213379 38.89921569824219 10.51196670532227 37.57101440429688 12.065749168396 36.51868057250977 C 14.42663288116455 34.91968154907227 17.18169975280762 34.07449722290039 20.03310012817383 34.07449722290039 C 20.93416595458984 34.07449722290039 21.83989906311035 34.16111373901367 22.72511672973633 34.33193206787109 L 22.72821617126465 34.33254623413086 L 22.73133277893066 34.33314895629883 L 32.88770294189453 36.33770370483398 L 34.47993469238281 28.24711418151855 C 35.11661529541016 25.01616477966309 36.87038421630859 22.0909309387207 39.41826629638672 20.00991439819336 C 41.94490051269531 17.94623184204102 45.12641525268555 16.80971527099609 48.37675094604492 16.80971527099609 C 48.92563629150391 16.80971527099609 49.48119735717773 16.84210205078125 50.02978134155273 16.90600204467773 C 50.04087448120117 16.90593338012695 50.05197143554688 16.90589714050293 50.06306457519531 16.90589714050293 C 50.42178726196289 16.90589714050293 50.78192901611328 16.94195175170898 51.13357543945313 17.01303672790527 L 58.91703414916992 18.54221534729004 C 59.07108306884766 18.57236480712891 59.22866439819336 18.58776473999023 59.38438415527344 18.58774757385254 C 60.52336502075195 18.58769798278809 61.51611709594727 17.77724266052246 61.74729919433594 16.65969848632813 L 64.42346954345703 2.896614551544189 L 64.43609619140625 2.831631422042847 L 64.45439910888672 2.768031358718872 C 64.81413269042969 1.518181324005127 65.55484771728516 0.4471979737281799 66.59648132324219 -0.3291353583335876 C 67.60953521728516 -1.084185361862183 68.86084747314453 -1.500002026557922 70.11989593505859 -1.500002026557922 C 70.50454711914063 -1.500002026557922 70.89191436767578 -1.461835384368896 71.27126312255859 -1.386568665504456 C 72.72536468505859 -1.098085403442383 74.00834655761719 -0.2803520262241364 74.88383483886719 0.9159812927246094 C 75.75931549072266 2.112314701080322 76.15066528320313 3.582547903060913 75.98578643798828 5.055798053741455 L 75.97904968261719 5.115898132324219 L 75.96749877929688 5.175264835357666 L 73.28981781005859 18.94623184204102 C 72.65361785888672 22.20223045349121 70.88976287841797 25.14646530151367 68.32291412353516 27.2379150390625 C 65.78931427001953 29.30226516723633 62.60340118408203 30.43914794921875 59.35205078125 30.43914794921875 C 58.44641494750977 30.43914794921875 57.5328483581543 30.35119819641113 56.63676452636719 30.17774772644043 L 48.84436798095703 28.64684867858887 C 48.69418334960938 28.61774826049805 48.53763198852539 28.60261535644531 48.38288116455078 28.60261535644531 C 47.24286270141602 28.60261535644531 46.24757766723633 29.41338348388672 46.01373291015625 30.53152656555176 L 44.4500732421875 38.56288146972656 L 54.61109924316406 40.5683479309082 C 58.3302001953125 41.2950325012207 61.54766464233398 43.42708206176758 63.66798400878906 46.57123184204102 C 65.78829956054688 49.71538162231445 66.55911254882813 53.49738311767578 65.83846282958984 57.2205810546875 L 58.83034896850586 93.30139923095703 C 58.13898468017578 96.85734558105469 56.8439826965332 100.2167282104492 54.98128128051758 103.2864990234375 C 53.18154907226563 106.2524948120117 50.89993286132813 108.872917175293 48.19983291625977 111.074951171875 C 45.52106475830078 113.2595825195313 42.51765060424805 114.9619445800781 39.27301788330078 116.134765625 C 35.96027374267578 117.3322067260742 32.49740219116211 117.9393997192383 28.98132133483887 117.9393997192383 Z M 17.6381950378418 47.85842132568359 L 10.60034942626953 83.97615051269531 C 9.649983406066895 88.86591339111328 10.66084957122803 93.83381652832031 13.44684982299805 97.96399688720703 C 16.23284912109375 102.0941848754883 20.46048355102539 104.8922348022461 25.35095024108887 105.8426971435547 C 26.53346633911133 106.0725326538086 27.73811721801758 106.1890640258789 28.93140029907227 106.1890640258789 C 37.82763290405273 106.1890640258789 45.51799774169922 99.83989715576172 47.21738433837891 91.0921630859375 L 54.23294830322266 55.01201629638672 C 54.4835090637207 53.71866226196289 53.63929748535156 52.44892501831055 52.34983062744141 52.17866134643555 L 20.47125053405762 45.97579956054688 C 20.31843376159668 45.94619750976563 20.1618824005127 45.93106460571289 20.00713348388672 45.93106460571289 C 18.86762237548828 45.93106460571289 17.87270545959473 46.74111175537109 17.6381950378418 47.85842132568359 Z M 32.31293869018555 76.00626373291016 C 32.31276702880859 76.00626373291016 32.3126220703125 76.00626373291016 32.31245040893555 76.00626373291016 C 31.93511581420898 76.00623321533203 31.55486679077148 75.96949768066406 31.18228340148926 75.89707946777344 C 29.65844917297363 75.60440063476563 28.28433227539063 74.69644927978516 27.4155158996582 73.40670013427734 C 26.54673385620117 72.11688232421875 26.22169876098633 70.50228118896484 26.52373313903809 68.97684478759766 L 28.81798362731934 57.19954681396484 L 28.82368278503418 57.17026519775391 L 28.8305492401123 57.14123153686523 C 29.13739967346191 55.84337997436523 29.88393211364746 54.67636489868164 30.9326171875 53.85514831542969 C 31.96733283996582 53.04489898681641 33.25814819335938 52.59866333007813 34.56726455688477 52.59866333007813 C 34.9439811706543 52.59866333007813 35.32363128662109 52.63528060913086 35.6956672668457 52.70751571655273 C 37.1984977722168 52.99928283691406 38.51176452636719 53.84916305541992 39.39355087280273 55.1005973815918 C 40.27533340454102 56.35203170776367 40.63381576538086 57.87467956542969 40.40295028686523 59.38804626464844 L 40.3983154296875 59.41838073730469 L 40.3924674987793 59.44848251342773 L 38.09733200073242 71.23793029785156 C 37.55643081665039 74.00157928466797 35.12390518188477 76.00626373291016 32.31293869018555 76.00626373291016 Z" stroke="none"/><path d="M 70.11992645263672 -7.62939453125e-06 C 68.19551086425781 -7.62939453125e-06 66.44687652587891 1.268539428710938 65.89586639404297 3.18292236328125 L 63.21817779541016 16.95386505126953 C 62.83956527709961 18.80754852294922 61.20826721191406 20.08775329589844 59.38444137573242 20.08775329589844 C 59.1348876953125 20.08775329589844 58.88190460205078 20.06381225585938 58.62784957885742 20.01408386230469 L 50.83963012695313 18.48397064208984 C 50.58398056030273 18.43203735351563 50.32382965087891 18.40590667724609 50.06316375732422 18.40590667724609 C 50.02617263793945 18.40590667724609 49.98919677734375 18.40643310546875 49.95219421386719 18.40748596191406 C 49.42354202270508 18.34181213378906 48.89688110351563 18.30970764160156 48.37672805786133 18.30970764160156 C 42.40130615234375 18.30970764160156 37.13487243652344 22.53252410888672 35.95170593261719 28.53677368164063 L 34.06966781616211 38.09992218017578 L 22.44088745117188 35.80475616455078 C 21.64167785644531 35.65052032470703 20.83546829223633 35.57448577880859 20.03311157226563 35.57448577880859 C 17.51078033447266 35.57448577880859 15.02548980712891 36.32573699951172 12.90690231323242 37.76062774658203 C 10.11439514160156 39.65195465087891 8.188285827636719 42.57582855224609 7.552940368652344 45.88817596435547 L 0.5373916625976563 81.96804809570313 C -2.513221740722656 97.65859222412109 7.733413696289063 112.8513336181641 23.42397689819336 115.9019927978516 C 25.28856658935547 116.2645111083984 27.14826583862305 116.4393920898438 28.97925567626953 116.4393920898438 C 42.55604553222656 116.4393920898438 54.66975402832031 106.8413467407227 57.35786819458008 93.01539611816406 L 64.36581420898438 56.93552017211914 C 65.69861602783203 50.04966735839844 61.20413970947266 43.38491821289063 54.32063293457031 42.03995513916016 L 42.69181060791016 39.74478912353516 L 44.54326629638672 30.23517608642578 C 44.92554092407227 28.38178253173828 46.55788421630859 27.10261535644531 48.38290405273438 27.10261535644531 C 48.63046646118164 27.10261535644531 48.88150787353516 27.12614440917969 49.13352203369141 27.17497253417969 L 56.92181396484375 28.70508575439453 C 57.73757934570313 28.86298370361328 58.55095672607422 28.93914794921875 59.35203552246094 28.93914794921875 C 65.31287384033203 28.93914794921875 70.63173675537109 24.72794342041016 71.81739807128906 18.65991973876953 L 74.49508666992188 4.88897705078125 C 74.74932098388672 2.617393493652344 73.22142791748047 0.5295562744140625 70.97935485839844 0.08473968505859375 C 70.69130706787109 0.027587890625 70.40362548828125 -7.62939453125e-06 70.11992645263672 -7.62939453125e-06 M 28.93142318725586 107.6890487670898 C 27.65592956542969 107.6890487670898 26.36373138427734 107.5675888061523 25.06479644775391 107.3151397705078 C 14.13986968994141 105.1918792724609 7.004722595214844 94.61417388916016 9.128032684326172 83.68924713134766 L 16.16741180419922 47.56362915039063 C 16.54971694946289 45.71022033691406 18.18209838867188 44.43106079101563 20.00713729858398 44.43106079101563 C 20.25469970703125 44.43106079101563 20.50572204589844 44.45458221435547 20.75774002075195 44.50341033935547 L 52.64517974853516 50.7080078125 C 54.74997711181641 51.14215850830078 56.11412048339844 53.18840789794922 55.70536041259766 55.29832077026367 L 48.68984985351563 91.37821197509766 C 46.81982803344727 101.0043640136719 38.38368225097656 107.6890487670898 28.93142318725586 107.6890487670898 M 34.56728363037109 54.09865570068359 C 32.56677627563477 54.09848785400391 30.76718139648438 55.46937561035156 30.29028701782227 57.48637390136719 L 27.99515914916992 69.2681884765625 C 27.76852416992188 70.41290283203125 28.00764846801758 71.60079193115234 28.65957641601563 72.56866455078125 C 29.31155776977539 73.53651428222656 30.32246780395508 74.20451354980469 31.46846771240234 74.42462921142578 C 31.75176620483398 74.47969055175781 32.03436279296875 74.50625610351563 32.31256866455078 74.50625610351563 C 34.37425231933594 74.50625610351563 36.21419143676758 73.05018615722656 36.62497711181641 70.95130157470703 L 38.92010498046875 59.16184616088867 C 39.27606964111328 56.82839202880859 37.72695922851563 54.62990188598633 35.4097785949707 54.18000793457031 C 35.1272087097168 54.12515258789063 34.84512329101563 54.09867858886719 34.56728363037109 54.09865570068359 M 70.11991882324219 -3.000007629394531 C 70.60230255126953 -3.000007629394531 71.08786773681641 -2.95220947265625 71.56314086914063 -2.857917785644531 C 73.38703155517578 -2.496063232421875 74.99623107910156 -1.470390319824219 76.09432220458984 0.0301361083984375 C 77.19242858886719 1.53070068359375 77.68328857421875 3.374771118164063 77.47647094726563 5.222648620605469 L 77.4630126953125 5.342849731445313 L 77.43994140625 5.461593627929688 L 74.76225280761719 19.23253631591797 C 74.05868530273438 22.83326721191406 72.10848236083984 26.08831787109375 69.27039337158203 28.40077209472656 C 66.46997833251953 30.68251800537109 62.94755935668945 31.93914031982422 59.35203170776367 31.93914031982422 C 58.35088729858398 31.93914031982422 57.34141540527344 31.84199523925781 56.3516845703125 31.65041351318359 L 56.34757614135742 31.64961242675781 L 56.34348678588867 31.64881134033203 L 48.561767578125 30.1199951171875 C 48.50184631347656 30.10845947265625 48.44166564941406 30.10260772705078 48.38290405273438 30.10260772705078 C 48.01349639892578 30.10260772705078 47.5880241394043 30.35243988037109 47.48377227783203 30.83007049560547 L 46.20835876464844 37.3809814453125 L 54.89591979980469 39.09563446044922 L 54.89591979980469 39.09562683105469 C 56.97428512573242 39.50171661376953 58.91266632080078 40.30328369140625 60.65724945068359 41.47806549072266 C 62.34108734130859 42.6119384765625 63.7724494934082 44.04335784912109 64.91161346435547 45.73255920410156 C 66.05075836181641 47.4217529296875 66.84139251708984 49.28526306152344 67.26155853271484 51.27131652832031 C 67.69688415527344 53.32902526855469 67.71356201171875 55.42653656005859 67.31114196777344 57.50561141967773 L 60.30283355712891 93.58740997314453 C 59.5775032043457 97.31804656982422 58.21855926513672 100.8428802490234 56.26364898681641 104.0645217895508 C 54.37495803833008 107.1770324707031 51.98085021972656 109.926643371582 49.14781188964844 112.2370300292969 C 46.33777618408203 114.5286636352539 43.18697738647461 116.3145217895508 39.782958984375 117.5449905395508 C 36.30548477172852 118.8020248413086 32.67059326171875 119.4393920898438 28.979248046875 119.4393920898438 C 26.93537521362305 119.4393920898438 24.8736686706543 119.2400283813477 22.85141372680664 118.8468475341797 C 18.61979675292969 118.0241165161133 14.67446899414063 116.3962478637695 11.12499618530273 114.0084838867188 C 7.697975158691406 111.7030792236328 4.784523010253906 108.790771484375 2.465560913085938 105.3524475097656 C 0.1465988159179688 101.9141235351563 -1.4619140625 98.1217041015625 -2.315315246582031 94.08052062988281 C -3.199188232421875 89.89497375488281 -3.230186462402344 85.62712097167969 -2.407463073730469 81.39550018310547 L 4.608085632324219 45.3155517578125 C 4.9993896484375 43.28075408935547 5.775749206542969 41.37167358398438 6.915725708007813 39.64117431640625 C 8.057052612304688 37.90859222412109 9.506759643554688 36.44017028808594 11.22459411621094 35.27671813964844 C 13.83472061157227 33.50890350341797 16.88066864013672 32.57448577880859 20.03310394287109 32.57448577880859 C 21.02937698364258 32.57448577880859 22.03073883056641 32.67024993896484 23.00935745239258 32.85910034179688 L 23.01557540893555 32.86029815673828 L 23.02179336547852 32.86153411865234 L 31.70573043823242 34.57547760009766 L 33.00815963745117 27.95748138427734 C 33.71224975585938 24.38439178466797 35.65170288085938 21.14955902099609 38.46937561035156 18.84817504882813 C 41.26306915283203 16.56637573242188 44.78155899047852 15.30972290039063 48.37672424316406 15.30972290039063 C 48.95413970947266 15.30972290039063 49.53804016113281 15.34211730957031 50.11545181274414 15.40610504150391 C 50.55462646484375 15.40945434570313 50.99493408203125 15.45500946044922 51.4253044128418 15.54168701171875 L 59.20619583129883 17.07035827636719 C 59.26448822021484 17.08177185058594 59.32514190673828 17.08775329589844 59.38442993164063 17.08775329589844 C 59.75184631347656 17.08775329589844 60.17458724975586 16.8389892578125 60.27679824829102 16.36337280273438 L 62.95101165771484 2.610298156738281 L 62.97628784179688 2.480354309082031 L 63.01290512084961 2.353134155273438 C 63.46410369873047 0.7854995727539063 64.39332580566406 -0.5578994750976563 65.70010375976563 -1.531845092773438 C 66.97039794921875 -2.478607177734375 68.54004669189453 -3.000007629394531 70.11991882324219 -3.000007629394531 Z M 52.04961013793945 53.64837646484375 L 20.18475723266602 47.44817352294922 C 20.1269416809082 47.43698883056641 20.06636047363281 47.43106842041016 20.00714111328125 47.43106842041016 C 19.63753509521484 47.43106842041016 19.21181106567383 47.68109893798828 19.10779190063477 48.15916442871094 L 12.07265090942383 84.26303100585938 C 11.19888687133789 88.75877380371094 12.12844848632813 93.32715606689453 14.69039535522461 97.12517547607422 C 17.25234222412109 100.923210144043 21.13995742797852 103.496208190918 25.63714218139648 104.370246887207 C 26.72557830810547 104.5817947387695 27.83394241333008 104.6890487670898 28.93143081665039 104.6890487670898 C 37.11108779907227 104.6890487670898 44.18217468261719 98.85042572021484 45.74490356445313 90.80612182617188 L 52.76050567626953 54.7257194519043 C 52.85526275634766 54.23661041259766 52.53709411621094 53.75479125976563 52.04961013793945 53.64837646484375 Z M 34.56681442260742 51.09866333007813 C 34.56688690185547 51.09866333007813 34.56688690185547 51.09866333007813 34.56688690185547 51.09866333007813 C 35.03998565673828 51.09870910644531 35.51571273803711 51.14456176757813 35.98150253295898 51.23499298095703 C 37.86652374267578 51.60097503662109 39.51372146606445 52.66697692871094 40.61972045898438 54.23661041259766 C 41.72572326660156 55.80622863769531 42.17535781860352 57.716064453125 41.88579559326172 59.61426544189453 L 41.87654113769531 59.67490005493164 L 41.86481475830078 59.7351188659668 L 39.56968688964844 71.52457427978516 C 38.89110565185547 74.99182891845703 35.83928680419922 77.50626373291016 32.31257629394531 77.50626373291016 C 31.83955764770508 77.50626373291016 31.36301422119141 77.46026611328125 30.89616012573242 77.36953735351563 C 28.9822883605957 77.00016784667969 27.26057815551758 75.86152648925781 26.17144775390625 74.2447509765625 C 25.08290863037109 72.62863159179688 24.67457962036133 70.60621643066406 25.05050277709961 68.69457244873047 L 25.05050277709961 68.69457244873047 L 27.34563064575195 56.91275405883789 L 27.35704803466797 56.85417556762695 L 27.37077713012695 56.79610061645508 C 27.75561141967773 55.1684455871582 28.69205093383789 53.70464324951172 30.00757598876953 52.67437744140625 C 31.30499649047852 51.65826416015625 32.9241943359375 51.09866333007813 34.56688690185547 51.09866333007813 L 34.56681442260742 51.09866333007813 Z" stroke="none" fill="#393e46"/></g></g></g></svg>